<svg width="32" height="32" viewBox="0 0 32 32" fill="none" xmlns="http://www.w3.org/2000/svg">
<g clip-path="url(#clip0_499_41)">
<path d="M15.2813 0.0749999C14.7188 0.18125 14.0063 0.575 13.5376 1.0375C12.1751 2.40625 12.1688 4.59375 13.5188 5.94375C13.9563 6.375 14.5313 6.7125 15.0751 6.85625L15.5001 6.9625V7.58125C15.5001 8.15 15.5126 8.20625 15.6563 8.34375C15.7501 8.44375 15.8813 8.5 16.0001 8.5C16.1188 8.5 16.2501 8.44375 16.3438 8.34375C16.4876 8.20625 16.5001 8.15 16.5001 7.575V6.95625L16.8438 6.88125C17.9813 6.625 18.9438 5.7125 19.3501 4.5C19.4376 4.25 19.4688 3.975 19.4688 3.5C19.4688 2.4875 19.1626 1.74375 18.4563 1.03125C17.6438 0.20625 16.4563 -0.15 15.2813 0.0749999ZM17.0251 1.2375C17.5938 1.5 17.9563 1.8625 18.2376 2.425C18.4563 2.875 18.4688 2.93125 18.4688 3.5C18.4688 4.06875 18.4563 4.125 18.2376 4.575C17.9563 5.14375 17.5938 5.49375 17.0126 5.76875C16.6313 5.95 16.5376 5.96875 16.0001 5.96875C15.4626 5.96875 15.3688 5.95 15.0001 5.775C14.4063 5.4875 14.0438 5.14375 13.7688 4.575C13.5438 4.125 13.5313 4.06875 13.5313 3.50625C13.5313 2.9625 13.5501 2.86875 13.7313 2.4875C13.9813 1.95625 14.3376 1.56875 14.8063 1.325C15.2938 1.0625 15.5688 1 16.1376 1.025C16.5188 1.04375 16.7126 1.09375 17.0251 1.2375Z" fill="white"/>
<path d="M15.7065 1.62497C15.5252 1.79372 15.4752 1.97497 15.5627 2.18122C15.694 2.51247 16.1002 2.59372 16.344 2.34372C16.7815 1.91247 16.1502 1.20622 15.7065 1.62497Z" fill="white"/>
<path d="M15.6563 3.15625C15.5063 3.3 15.5 3.33125 15.5 4.25C15.5 5.16875 15.5063 5.2 15.6563 5.34375C15.75 5.44375 15.8813 5.5 16 5.5C16.1188 5.5 16.25 5.44375 16.3438 5.34375C16.4938 5.2 16.5 5.16875 16.5 4.25C16.5 3.33125 16.4938 3.3 16.3438 3.15625C16.25 3.05625 16.1188 3 16 3C15.8813 3 15.75 3.05625 15.6563 3.15625Z" fill="white"/>
<path d="M6.25645 3.7875C5.0877 4.1 4.0877 5.1125 3.78145 6.29375C3.6627 6.75625 3.6627 7.5625 3.78145 8.025C4.0627 9.10625 4.94395 10.0812 5.9627 10.4375C6.9377 10.7812 8.18145 10.6625 8.9502 10.1562C9.0752 10.0687 9.20645 10 9.2252 10C9.2502 10 9.4627 10.1812 9.69395 10.4062C10.0502 10.75 10.1439 10.8125 10.3377 10.8125C10.6314 10.8125 10.8127 10.6312 10.8127 10.3375C10.8127 10.1437 10.7502 10.05 10.3939 9.68125L9.9752 9.24375L10.0877 9.075C10.7189 8.10625 10.8189 6.7875 10.3439 5.71875C9.96895 4.8625 9.1377 4.125 8.2377 3.84375C7.6627 3.6625 6.8127 3.6375 6.25645 3.7875ZM8.21895 4.90625C9.7502 5.65 10.1189 7.6375 8.9627 8.875C7.7877 10.1312 5.66895 9.7875 4.9002 8.21875C4.73145 7.875 4.71895 7.7875 4.71895 7.15625C4.71895 6.525 4.73145 6.4375 4.9002 6.09375C5.20645 5.475 5.79395 4.98125 6.5002 4.74375C6.5877 4.7125 6.9252 4.7 7.2502 4.70625C7.7627 4.71875 7.9002 4.75 8.21895 4.90625Z" fill="white"/>
<path d="M6.825 5.33121C6.575 5.59371 6.675 5.98746 7.01875 6.11871C7.36875 6.24996 7.7375 5.93121 7.65625 5.56246C7.575 5.19371 7.08125 5.05621 6.825 5.33121Z" fill="white"/>
<path d="M6.8125 6.81248C6.7 6.92498 6.6875 7.01873 6.6875 7.90623C6.6875 8.79373 6.7 8.88748 6.8125 8.99998C7 9.18748 7.33125 9.18748 7.53125 8.99373C7.6375 8.88748 7.65625 8.76873 7.68125 8.11873C7.70625 7.25623 7.66875 6.98123 7.49375 6.80623C7.33125 6.64373 6.975 6.64998 6.8125 6.81248Z" fill="white"/>
<path d="M23.9438 3.7875C22.8813 4.06875 21.9125 4.95625 21.5625 5.9625C21.2188 6.9375 21.3375 8.18125 21.8438 8.95C21.9313 9.075 22 9.20625 22 9.225C22 9.25 21.8188 9.4625 21.5938 9.69375C21.25 10.05 21.1875 10.1437 21.1875 10.3375C21.1875 10.6312 21.3688 10.8125 21.6625 10.8125C21.8563 10.8125 21.95 10.75 22.3063 10.4062C22.5375 10.1812 22.75 10 22.775 10C22.8 10 22.9063 10.0562 23.0063 10.1312C23.3063 10.3437 23.8813 10.55 24.3563 10.6125C26.1063 10.8563 27.7688 9.74375 28.2188 8.025C28.3375 7.5625 28.3375 6.75625 28.2188 6.29375C27.9063 5.1 26.9063 4.09375 25.7125 3.78125C25.2625 3.6625 24.3938 3.66875 23.9438 3.7875ZM25.9063 4.90625C26.3813 5.1375 26.8625 5.6125 27.1 6.09375C27.2688 6.4375 27.2813 6.525 27.2813 7.15625C27.2813 7.7875 27.2688 7.875 27.1 8.21875C26.3438 9.75 24.3625 10.125 23.125 8.9625C21.9625 7.875 22.15 5.93125 23.5 5.0625C23.975 4.75625 24.2625 4.6875 24.9375 4.70625C25.4375 4.725 25.5875 4.75625 25.9063 4.90625Z" fill="white"/>
<path d="M24.5002 5.31249C24.2502 5.56249 24.4064 6.11249 24.7377 6.13124C25.1252 6.15624 25.3377 5.98749 25.3377 5.64999C25.3377 5.23749 24.7939 5.01874 24.5002 5.31249Z" fill="white"/>
<path d="M24.5063 6.80623C24.3313 6.98123 24.2938 7.25623 24.3188 8.11873C24.3438 8.76873 24.3625 8.88748 24.4688 8.99373C24.6688 9.18748 25 9.18748 25.1875 8.99998C25.3 8.88748 25.3125 8.79373 25.3125 7.90623C25.3125 7.01873 25.3 6.92498 25.1875 6.81248C25.025 6.64998 24.6688 6.64373 24.5063 6.80623Z" fill="white"/>
<path d="M14.0625 10.0937C12.0062 10.5062 10.4875 12.05 10.0875 14.1125C9.98123 14.6812 9.96248 19.5875 10.0687 20.3437C10.2937 21.975 11.2812 23.5562 12.6437 24.4562L13 24.6937V25.0875V25.4875L11.8937 25.5125C10.9 25.5375 10.7375 25.5562 10.3687 25.7C9.76873 25.925 9.43748 26.1375 8.99998 26.575C8.55623 27.025 8.17498 27.7437 8.06873 28.3375C7.97498 28.85 7.98123 30.6375 8.07498 30.9625C8.17498 31.3062 8.69373 31.825 9.03748 31.925C9.23123 31.9812 10.9187 32 16.0125 32C23.625 32 23.1 32.0375 23.5812 31.5C23.975 31.0562 24.0187 30.85 23.9875 29.4562C23.9562 28.175 23.9 27.9125 23.5 27.2187C23.2687 26.8187 22.7062 26.2437 22.325 26.0187C21.65 25.625 21.3062 25.5437 20.1125 25.5125L19 25.4875V25.1V24.7125L19.3937 24.4375C20.775 23.4625 21.7062 21.9687 21.9312 20.3437C21.9687 20.0687 22 18.7687 22 17.2562C22 14.3875 21.9875 14.25 21.6125 13.55C21.2687 12.9 20.3687 12.2125 19.7062 12.0875L19.5 12.05V11.175C19.5 10.3375 19.4937 10.3 19.3437 10.1562L19.1937 9.99999L16.8312 10.0062C15.15 10.0125 14.35 10.0375 14.0625 10.0937ZM18.5 11.8437C18.5 12.6437 18.5062 12.7 18.6437 12.8375C18.75 12.9437 18.8875 12.9875 19.1812 13.0187C19.6375 13.0687 20.2312 13.3562 20.475 13.6437C20.5625 13.7437 20.7062 13.975 20.8 14.15C20.95 14.4437 20.9625 14.5437 20.9875 15.375L21.0125 16.2812L20.6375 15.925C20.4312 15.7312 20.1937 15.55 20.1125 15.5312C20.0062 15.5062 19.775 15.5687 19.3687 15.7437C17.0562 16.725 15.0812 16.7375 12.725 15.775C12.2562 15.5812 11.9875 15.5062 11.8875 15.5312C11.8 15.55 11.5687 15.725 11.3687 15.9187L11 16.2687V15.4312C11 14.475 11.1 13.9062 11.3625 13.35C11.775 12.4812 12.4312 11.8187 13.2937 11.4C14.025 11.0437 14.3 11.0125 16.5187 11.0062L18.5 11V11.8437ZM12.6125 16.8125C13.6062 17.2125 15 17.5 16 17.5C16.9875 17.5 18.2937 17.2437 19.3375 16.8375L19.9 16.6187L20.4562 17.1687L21.0062 17.7187L20.9812 19.0312C20.9562 20.3812 20.925 20.5937 20.625 21.3875C20.4437 21.875 19.9687 22.5812 19.525 23.025C17.8875 24.6625 15.3625 24.9625 13.3937 23.75C12.2687 23.0562 11.5312 22.0562 11.1437 20.6875C11.075 20.4437 11.0375 19.9625 11.0187 19.0375L10.9875 17.7312L11.5375 17.1812C11.8437 16.875 12.1062 16.625 12.125 16.625C12.1437 16.625 12.3625 16.7125 12.6125 16.8125ZM14.5812 25.325C15.3125 25.525 16.6875 25.525 17.4187 25.325C17.7 25.25 17.9437 25.1875 17.9625 25.1875C17.9812 25.1875 18 25.3187 18 25.4812C18 25.7562 17.975 25.8062 17.6812 26.1L17.3625 26.425L16.6812 26.2L16 25.975L15.3187 26.2L14.6375 26.425L14.3187 26.1C14.025 25.8062 14 25.7562 14 25.4812C14 25.3187 14.0187 25.1875 14.0375 25.1875C14.0562 25.1875 14.3 25.25 14.5812 25.325ZM13.7875 27C14.1187 27.3187 14.3625 27.5 14.45 27.5C14.525 27.5 14.9062 27.3937 15.2937 27.2687L16 27.0375L16.7062 27.2687C17.0937 27.3937 17.475 27.5 17.55 27.5C17.6375 27.5 17.8812 27.3187 18.2187 26.9937L18.7437 26.4875L19.9187 26.5125C21.0875 26.5312 21.0937 26.5312 21.5125 26.7312C22.0937 27.0062 22.4562 27.3562 22.7375 27.925L22.9687 28.4L22.9875 29.5375L23.0125 30.6812L22.85 30.8437L22.6937 31H16H9.30623L9.14998 30.8437L8.98748 30.6812L9.01248 29.5437C9.03123 28.4187 9.03123 28.4 9.23123 27.9875C9.48123 27.4562 9.83748 27.0687 10.3062 26.825C10.8187 26.5437 11.0187 26.5125 12.2125 26.5062L13.2687 26.5L13.7875 27Z" fill="white"/>
<path d="M15.7689 28.575C15.6939 28.6125 15.6002 28.7188 15.5564 28.8188C15.3564 29.3063 15.9752 29.7188 16.3439 29.3438C16.7502 28.9438 16.2939 28.325 15.7689 28.575Z" fill="white"/>
<path d="M3.28135 12.5687C2.70635 12.6812 2.0001 13.075 1.5376 13.5375C0.162598 14.9125 0.162598 17.0875 1.5376 18.4625C2.90635 19.825 5.09385 19.8312 6.44385 18.4812C6.8751 18.0437 7.2126 17.4687 7.35635 16.925L7.4626 16.5H8.08135C8.6501 16.5 8.70635 16.4875 8.84385 16.3437C8.94385 16.25 9.0001 16.1187 9.0001 16C9.0001 15.8812 8.94385 15.75 8.84385 15.6562C8.70635 15.5125 8.6501 15.5 8.08135 15.5H7.4626L7.35635 15.075C7.15635 14.2937 6.5001 13.4125 5.8251 13.0187C5.1001 12.5937 4.06885 12.4125 3.28135 12.5687ZM5.0251 13.7375C5.59385 14 5.95635 14.3625 6.2376 14.925C6.45635 15.375 6.46885 15.4312 6.46885 16C6.46885 16.5687 6.45635 16.625 6.2376 17.075C5.95635 17.6437 5.59385 17.9937 5.0126 18.2687C4.63135 18.45 4.5376 18.4687 4.0001 18.4687C3.4626 18.4687 3.36885 18.45 2.9876 18.2687C2.40635 17.9937 2.04385 17.6437 1.7626 17.075C1.54385 16.625 1.53135 16.5687 1.53135 16.0062C1.53135 15.4625 1.5501 15.3687 1.73135 14.9875C1.98135 14.4562 2.3376 14.0687 2.80635 13.825C3.29385 13.5625 3.56885 13.5 4.1376 13.525C4.51885 13.5437 4.7126 13.5937 5.0251 13.7375Z" fill="white"/>
<path d="M3.76888 14.075C3.69388 14.1125 3.60013 14.2188 3.56263 14.3125C3.35638 14.8063 3.96888 15.225 4.34388 14.8438C4.75013 14.4438 4.29388 13.825 3.76888 14.075Z" fill="white"/>
<path d="M3.65625 15.6562C3.50625 15.8 3.5 15.8312 3.5 16.75C3.5 17.6687 3.50625 17.7 3.65625 17.8437C3.75 17.9437 3.88125 18 4 18C4.11875 18 4.25 17.9437 4.34375 17.8437C4.49375 17.7 4.5 17.6687 4.5 16.75C4.5 15.8312 4.49375 15.8 4.34375 15.6562C4.25 15.5562 4.11875 15.5 4 15.5C3.88125 15.5 3.75 15.5562 3.65625 15.6562Z" fill="white"/>
<path d="M27.3439 12.5563C26.9939 12.6375 26.4876 12.8313 26.1751 13.0188C25.5001 13.4125 24.8439 14.3 24.6439 15.075L24.5376 15.5H23.9189C23.3501 15.5 23.2939 15.5125 23.1564 15.6563C22.9501 15.8563 22.9501 16.1438 23.1564 16.3438C23.2939 16.4875 23.3501 16.5 23.9376 16.5C24.5001 16.5 24.5626 16.5125 24.5626 16.6125C24.5626 16.8375 24.8251 17.5063 25.0626 17.8625C26.0501 19.3938 27.9001 19.9125 29.5439 19.1188C31.0814 18.3813 31.8689 16.5188 31.3189 14.9188C30.8251 13.5 29.6251 12.5875 28.1564 12.5313C27.8501 12.5188 27.4814 12.5313 27.3439 12.5563ZM29.0251 13.7375C29.5939 14 29.9564 14.3625 30.2376 14.925C30.4564 15.375 30.4689 15.4313 30.4689 16C30.4689 16.5688 30.4564 16.625 30.2376 17.075C29.9564 17.6438 29.5939 17.9938 29.0126 18.2688C28.6314 18.45 28.5376 18.4688 28.0001 18.4688C27.4626 18.4688 27.3689 18.45 26.9876 18.2688C26.4064 17.9938 26.0439 17.6438 25.7626 17.075C25.5439 16.625 25.5314 16.5688 25.5314 16.0063C25.5314 15.4625 25.5501 15.3688 25.7314 14.9875C25.9814 14.4563 26.3376 14.0688 26.8064 13.825C27.2939 13.5625 27.5689 13.5 28.1376 13.525C28.5189 13.5438 28.7126 13.5938 29.0251 13.7375Z" fill="white"/>
<path d="M27.7689 14.075C27.6939 14.1125 27.6001 14.2188 27.5626 14.3125C27.3564 14.8063 27.9689 15.225 28.3439 14.8438C28.7501 14.4438 28.2939 13.825 27.7689 14.075Z" fill="white"/>
<path d="M27.6563 15.6562C27.5063 15.8 27.5 15.8312 27.5 16.75C27.5 17.6687 27.5063 17.7 27.6563 17.8437C27.75 17.9437 27.8813 18 28 18C28.1188 18 28.25 17.9437 28.3438 17.8437C28.4938 17.7 28.5 17.6687 28.5 16.75C28.5 15.8312 28.4938 15.8 28.3438 15.6562C28.25 15.5562 28.1188 15.5 28 15.5C27.8813 15.5 27.75 15.5562 27.6563 15.6562Z" fill="white"/>
</g>
<defs>
<clipPath id="clip0_499_41">
<rect width="32" height="32" fill="white"/>
</clipPath>
</defs>
</svg>
