<svg width="32" height="29" viewBox="0 0 32 29" fill="none" xmlns="http://www.w3.org/2000/svg">
<path d="M21.6194 0.123962C21.3352 0.332512 21.2061 0.5932 21.0575 1.29333L20.9219 1.91898L20.6183 2.0605L20.3147 2.20947L19.8432 1.86685C19.3071 1.47954 18.8937 1.38271 18.5772 1.57637C18.4738 1.6434 18.1573 1.96367 17.8796 2.2914C17.3887 2.86491 17.3693 2.90215 17.337 3.28946C17.3112 3.70656 17.3952 3.98959 17.7633 4.63014C17.9119 4.89083 17.9184 4.92807 17.8408 5.19621C17.7181 5.63565 17.7052 5.6431 17.182 5.79206C16.5813 5.95592 16.3036 6.13468 16.1292 6.46985C16.0194 6.6933 16 6.85716 16 7.58709C16 8.85329 16.1615 9.10653 17.1562 9.38211C17.6987 9.53852 17.6987 9.53852 17.8021 9.85135C17.8602 10.0227 17.9054 10.1865 17.9054 10.2163C17.9054 10.2461 17.7763 10.5291 17.6148 10.8494C17.1174 11.8251 17.2014 12.2497 18.0669 13.1584C18.4868 13.5978 18.6418 13.6946 18.9777 13.6946C19.2554 13.6946 19.5396 13.5606 19.9724 13.2254L20.3018 12.9647L20.6183 13.1211L20.9348 13.2701L21.0381 13.8362C21.1673 14.4916 21.3352 14.8491 21.613 15.0428C21.8972 15.2439 23.344 15.2513 23.5895 15.0577C23.9253 14.7895 24.0029 14.6182 24.2354 13.5755C24.2935 13.3073 24.3387 13.2477 24.5971 13.1211L24.8942 12.9722L25.4109 13.3297C25.8243 13.6202 25.9923 13.6946 26.2183 13.6946C26.6059 13.6946 26.7738 13.5755 27.3487 12.8977C28.0527 12.056 28.0786 11.8102 27.5618 10.7749L27.2776 10.2014L27.4003 9.87369C27.5295 9.54597 27.5424 9.53852 27.9946 9.4119C28.5694 9.24804 28.7309 9.15866 28.9828 8.85329C29.1701 8.62984 29.1766 8.60005 29.196 7.76584C29.2218 6.74544 29.2024 6.62627 28.9441 6.28365C28.7503 6.03041 28.5501 5.93358 27.8073 5.72503C27.5683 5.658 27.5166 5.60586 27.4003 5.30048L27.2712 4.95786L27.5231 4.49607C28.085 3.46822 28.0527 3.11815 27.3228 2.24671C26.5477 1.33802 26.2119 1.27099 25.3593 1.88174L24.8813 2.22436L24.5842 2.05305L24.2806 1.88919L24.145 1.23375C24.0222 0.690027 23.9576 0.533614 23.7639 0.302719L23.5249 0.0271346L22.6658 0.00478991C21.923 -0.0101065 21.7874 0.00478991 21.6194 0.123962ZM23.3763 5.36007C23.8155 5.55372 24.3064 6.08999 24.5131 6.60392C24.7327 7.14764 24.7134 8.07867 24.4744 8.64474C24.2741 9.10653 23.9318 9.50873 23.512 9.75452C23.1244 9.98542 22.3687 10.0376 21.9036 9.8588C21.4192 9.67259 20.812 8.97246 20.657 8.42129C20.5085 7.92226 20.5085 7.25936 20.6506 6.77523C20.8314 6.13468 21.4321 5.48669 22.0393 5.27069C22.3687 5.15896 22.9952 5.20365 23.3763 5.36007Z" fill="white"/>
<path d="M10.5671 12.9365C10.2312 13.0259 10.1085 13.1004 7.33754 14.9476C5.99404 15.8413 4.87015 16.5787 4.85077 16.5787C4.82494 16.5787 4.73451 16.4223 4.64408 16.2286C4.3405 15.5732 4.13381 15.3051 3.75918 15.1114C3.47498 14.9624 3.33288 14.9327 3.0293 14.955C2.69989 14.9848 2.53841 15.0667 1.66643 15.6402C1.1174 16.0052 0.561917 16.4149 0.432735 16.5638C0.10332 16.9213 -0.0323219 17.3533 0.00643278 17.9045C0.0322693 18.3216 0.135615 18.5525 2.50611 23.2896C3.86899 26.0082 5.05747 28.332 5.14789 28.4437C5.47731 28.8534 6.00696 29.0694 6.45264 28.98C6.73038 28.9279 8.64228 27.6989 8.93294 27.3935C9.21068 27.0882 9.35924 26.6636 9.35924 26.1422C9.35924 25.6879 9.27527 25.4347 8.90064 24.7271L8.77792 24.4887L9.21068 24.1983C9.45613 24.0344 9.72741 23.878 9.81784 23.8556C10.0245 23.796 10.3281 23.878 14.3974 25.1442C16.264 25.7251 17.9628 26.2242 18.1759 26.2614C18.6991 26.3359 19.3192 26.2242 19.7907 25.9709C20.1072 25.8071 28.2393 20.422 30.4483 18.9175C31.3913 18.2844 31.8111 17.6587 31.9662 16.6681C32.1535 15.454 31.5463 14.1431 30.5581 13.6143C30.0672 13.3611 29.2792 13.3015 28.7883 13.4877C28.5299 13.5845 22.6521 17.4204 21.0696 18.5302L20.8629 18.6717L20.934 18.3886C21.0438 17.9268 20.9663 17.0926 20.766 16.6234C20.5594 16.1318 20.0168 15.536 19.6228 15.3647C19.4678 15.2976 17.5946 14.7092 15.4631 14.0463C11.4326 12.8025 11.2259 12.7578 10.5671 12.9365ZM15.3339 15.2455C17.9822 16.0573 19.2805 16.4968 19.4419 16.616C19.8941 16.9586 20.0878 17.8002 19.8359 18.3588C19.7778 18.5004 19.6163 18.7164 19.4871 18.8355C19.0479 19.2377 18.951 19.2228 15.8054 18.262C14.2488 17.7853 12.8924 17.398 12.789 17.398C12.3627 17.398 12.1302 18.0237 12.4338 18.3588C12.5178 18.4631 13.5254 18.7983 15.6569 19.4537C17.3621 19.9751 18.9446 20.4443 19.1771 20.5039C19.8941 20.6827 19.9328 20.6678 23.1495 18.5227C29.3244 14.4038 28.9821 14.6124 29.3825 14.5826C30.0284 14.5305 30.5322 14.8507 30.8164 15.4913C31.1006 16.1318 30.9262 17.0926 30.4547 17.5023C30.093 17.8226 19.4096 24.8984 19.1513 24.9952C18.6281 25.1889 18.3051 25.1144 14.4297 23.9152C12.3692 23.2821 10.509 22.7235 10.3023 22.6863C9.79846 22.5969 9.46259 22.6863 8.7973 23.0959L8.26119 23.4311L8.17076 23.2598C7.95761 22.8725 5.41918 17.7779 5.40626 17.7034C5.38688 17.6289 9.75325 14.672 10.4896 14.2623C10.7415 14.1208 10.9805 14.0463 11.1678 14.0463C11.3357 14.0463 13.0539 14.5379 15.3339 15.2455Z" fill="white"/>
</svg>
